<svg width="256" height="256" viewBox="0 0 256 256" xmlns="http://www.w3.org/2000/svg">
<g transform="translate(3.8623 3.8452) scale(0.484910)">
	<path fill-rule="evenodd" d="m 477.958,262.633 c -2.06,-4.215 -2.06,-9.049 0,-13.263 l 19.096,-39.065 c 10.632,-21.751 2.208,-47.676 -19.178,-59.023 l -38.41,-20.38 c -4.144,-2.198 -6.985,-6.11 -7.796,-10.729 L 424.158,77.344 C 419.975,53.498 397.917,37.474 373.95,40.865 l -43.053,6.09 c -4.647,0.656 -9.242,-0.838 -12.613,-4.099 L 287.033,12.624 c -17.401,-16.834 -44.661,-16.835 -62.061,0 L 193.72,42.859 c -3.372,3.262 -7.967,4.753 -12.613,4.099 l -43.053,-6.09 C 114.079,37.475 92.029,53.501 87.846,77.347 l -7.512,42.827 c -0.811,4.62 -3.652,8.531 -7.795,10.73 l -38.41,20.38 C 12.743,162.63 4.319,188.557 14.951,210.308 l 19.095,39.064 c 2.06,4.215 2.06,9.049 0,13.263 L 14.95,301.699 c -10.632,21.751 -2.208,47.676 19.178,59.023 l 38.41,20.38 c 4.144,2.198 6.985,6.11 7.796,10.729 l 7.512,42.829 c 3.808,21.708 22.422,36.932 43.815,36.93 2.107,0 4.245,-0.148 6.394,-0.452 l 43.053,-6.09 c 4.643,-0.659 9.241,0.838 12.613,4.099 l 31.251,30.232 c 8.702,8.418 19.864,12.626 31.03,12.625 11.163,-10e-4 22.332,-4.209 31.03,-12.625 l 31.252,-30.232 c 3.372,-3.261 7.968,-4.751 12.613,-4.099 l 43.053,6.09 c 23.978,3.392 46.025,-12.633 50.208,-36.479 l 7.513,-42.827 c 0.811,-4.62 3.652,-8.531 7.795,-10.73 l 38.41,-20.38 c 21.386,-11.346 29.81,-37.273 19.178,-59.024 z m -13.923,72.002 -38.41,20.38 c -12.246,6.499 -20.645,18.057 -23.04,31.713 l -7.512,42.828 c -1.415,8.068 -8.874,13.487 -16.987,12.342 l -43.053,-6.09 c -13.73,-1.945 -27.316,2.474 -37.281,12.113 L 266.5,478.152 c -5.886,5.694 -15.109,5.694 -20.997,0 L 214.252,447.92 c -8.422,-8.147 -19.432,-12.562 -30.926,-12.562 -2.106,0 -4.229,0.148 -6.355,0.449 l -43.053,6.09 c -8.106,1.146 -15.571,-4.274 -16.987,-12.342 l -7.513,-42.829 C 107.022,373.07 98.624,361.511 86.377,355.014 l -38.41,-20.38 c -7.236,-3.839 -10.086,-12.61 -6.489,-19.969 L 60.574,275.6 c 6.088,-12.456 6.088,-26.742 0,-39.198 L 41.478,197.337 c -3.597,-7.359 -0.747,-16.13 6.489,-19.969 l 38.41,-20.38 c 12.246,-6.499 20.645,-18.057 23.04,-31.713 l 7.512,-42.828 c 1.416,-8.068 8.874,-13.488 16.987,-12.342 l 43.053,6.09 c 13.725,1.943 27.316,-2.474 37.281,-12.113 L 245.502,33.85 c 5.886,-5.694 15.109,-5.694 20.997,0 l 31.251,30.232 c 9.965,9.64 23.554,14.056 37.281,12.113 l 43.053,-6.09 c 8.107,-1.147 15.572,4.274 16.987,12.342 l 7.512,42.829 c 2.396,13.656 10.794,25.215 23.041,31.712 l 38.41,20.38 c 7.236,3.839 10.086,12.61 6.489,19.969 l -19.096,39.064 c -6.088,12.455 -6.088,26.743 0,39.198 l 19.096,39.064 c 3.598,7.361 0.748,16.133 -6.488,19.972 z"/>
	<path fill-rule="evenodd" d="M 256.00195,-7.9296875 C 242.80575,-7.929803 229.61064,-2.9942568 219.41016,6.875 L 188.1582,37.109375 c -1.63724,1.583832 -3.67246,2.244347 -5.93554,1.925781 l 0.004,0.002 -43.05078,-6.089843 h -0.002 C 111.06516,28.97031 84.870939,48.007832 79.966797,75.964844 l -7.511719,42.826176 c -0.39384,2.24357 -1.654879,3.97941 -3.666016,5.04687 L 30.378906,144.2168 C 5.3040376,157.51987 -4.7019539,188.31807 7.7636719,213.82031 l 19.0957031,39.06446 c 1.000466,2.04707 0.999857,4.19099 0,6.23632 L 7.7636719,298.18555 a 8.0008,8.0008 0 0 0 -0.00195,0 c -12.4655408,25.50206 -2.4570554,56.2996 22.6171873,69.60351 l 38.410156,20.37891 a 8.0008,8.0008 0 0 0 0,0.002 c 2.009855,1.06604 3.272286,2.80246 3.666016,5.04492 l 7.511719,42.82813 c 4.464589,25.45097 26.506493,43.54923 51.695313,43.54687 2.481,-9e-5 4.99325,-0.1747 7.51367,-0.53125 l 43.05274,-6.08984 a 8.0008,8.0008 0 0 0 0.004,0 c 2.24656,-0.31886 4.28865,0.34455 5.92774,1.92969 l 31.25,30.23047 c 10.20154,9.8686 23.4154,14.87618 36.59179,14.875 13.17252,-0.001 26.39211,-5.00654 36.5918,-14.875 l 31.25195,-30.23243 v 0.002 c 1.63612,-1.58226 3.67527,-2.24555 5.93946,-1.92774 l 43.04492,6.08789 c 28.11139,3.97673 54.30288,-15.06052 59.20703,-43.01757 l 7.51367,-42.82618 c 0.39375,-2.24305 1.65374,-3.97935 3.66406,-5.04687 L 481.625,367.78906 c 25.07487,-13.30307 35.08281,-44.10127 22.61719,-69.60351 l -19.09571,-39.06446 c -1.00046,-2.04707 -1.00181,-4.19294 -0.002,-6.23828 l 19.09766,-39.06445 c 12.46554,-25.50207 2.45705,-56.29961 -22.61719,-69.60352 l -38.41016,-20.3789 a 8.0008,8.0008 0 0 0 0,-0.002 c -2.00929,-1.06573 -3.2719,-2.80141 -3.66601,-5.04296 v -0.002 l -7.51172,-42.826169 a 8.0008,8.0008 0 0 0 0,-0.002 C 427.13254,48.001495 400.93256,28.967246 372.83008,32.943359 l -43.05078,6.089844 c -2.2596,0.31898 -4.29611,-0.343678 -5.9336,-1.927734 L 292.5957,6.875 C 282.39484,-2.9934701 269.19815,-7.929572 256.00195,-7.9296875 Z m 0,15.8554687 c 9.13405,1.346e-4 18.26861,3.4817358 25.46875,10.4472658 l 31.25,30.232422 a 8.0008,8.0008 0 0 0 0.002,0 c 5.10451,4.937943 12.25857,7.264504 19.29296,6.271484 a 8.0008,8.0008 0 0 0 0.002,0 l 43.05273,-6.089844 a 8.0008,8.0008 0 0 0 0,-0.002 c 19.83152,-2.805886 37.7456,10.208849 41.20703,29.941406 l 7.51368,42.828128 a 8.0008,8.0008 0 0 0 0,0.002 c 1.22827,6.99554 5.64763,13.08215 11.92578,16.41211 l 38.41015,20.38086 c 17.69776,9.39009 24.5387,30.44147 15.74024,48.44141 l -19.09571,39.0664 c -3.12014,6.38266 -3.12148,13.90613 -0.002,20.28906 a 8.0008,8.0008 0 0 0 0.002,0 l 19.09571,39.06446 c 8.79837,17.99976 1.95689,39.05443 -15.74024,48.44336 l -38.41015,20.38086 a 8.0008,8.0008 0 0 0 -0.002,0 c -6.27486,3.33054 -10.69566,9.41763 -11.92382,16.41406 l -7.51172,42.82812 a 8.0008,8.0008 0 0 0 -0.002,0 c -3.46185,19.73495 -21.36242,32.74673 -41.20703,29.93946 l -43.05273,-6.08985 a 8.0008,8.0008 0 0 0 -0.008,-0.002 c -7.02582,-0.98619 -14.17923,1.33174 -19.28711,6.27148 l -31.25196,30.23243 a 8.0008,8.0008 0 0 0 -0.002,0 c -7.19617,6.96285 -16.31377,10.37418 -25.4668,10.375 -9.15561,8.2e-4 -18.26433,-3.4076 -25.46679,-10.375 L 199.2832,463.39648 c -5.10491,-4.93686 -12.25938,-7.26866 -19.29883,-6.26953 l -43.05078,6.08985 c -1.77693,0.25136 -3.54106,0.37304 -5.27343,0.37304 -17.59719,0.002 -32.782187,-12.34747 -35.933598,-30.3125 l -7.513671,-42.82812 a 8.0008,8.0008 0 0 0 0,-0.002 c -1.22827,-6.99554 -5.647636,-13.08215 -11.925782,-16.41211 L 37.876953,353.6543 C 20.179196,344.26421 13.33826,323.21282 22.136719,305.21289 l 19.095703,-39.06445 c 3.120143,-6.38266 3.121487,-13.90613 0.002,-20.28907 a 8.0008,8.0008 0 0 0 -0.002,0 L 22.138672,206.79492 C 13.340298,188.79516 20.181775,167.74049 37.878906,158.35156 L 76.289062,137.9707 c 6.274864,-3.33054 10.695668,-9.41763 11.923829,-16.41406 L 95.726562,78.728516 C 99.188307,58.994173 117.09299,45.981173 136.93359,48.789062 l 43.05274,6.089844 a 8.0008,8.0008 0 0 0 0.006,0.002 c 7.02891,0.989434 14.18425,-1.331316 19.29101,-6.271484 L 230.53516,18.373047 C 237.73468,11.407304 246.8679,7.9256467 256.00195,7.9257812 Z M 256,21.652344 c -5.80808,4.5e-5 -11.61676,2.148434 -16.06055,6.447265 L 208.6875,58.332031 c -8.23013,7.960884 -19.26443,11.545812 -30.59766,9.941406 l -43.05273,-6.089843 a 8.0008,8.0008 0 0 0 -0.002,0 c -12.24428,-1.729563 -23.84901,6.702942 -25.98633,18.880859 l -7.51172,42.828127 c -1.977945,11.278 -8.795474,20.66139 -18.910157,26.02929 l -38.410156,20.37891 c -10.924157,5.79572 -15.356216,19.43886 -9.925781,30.54883 l 19.095703,39.06641 c 5.027493,10.28748 5.028043,21.88453 0,32.17187 l -19.095703,39.06445 c -5.430435,11.10998 -0.998376,24.75311 9.925781,30.54883 l 38.410156,20.37891 a 8.0008,8.0008 0 0 0 0,0.002 c 10.114329,5.36563 16.933191,14.7485 18.912107,26.02734 l 7.51172,42.82813 c 2.1381,12.18234 13.74448,20.61157 25.98633,18.88086 a 8.0008,8.0008 0 0 0 0.002,0 l 43.05274,-6.08984 c 1.75447,-0.2484 3.50317,-0.3711 5.23437,-0.3711 9.4454,0 18.40743,3.58377 25.36328,10.3125 l 31.25196,30.23242 c 8.88901,8.59614 23.23352,8.59767 32.12109,0 l 31.25195,-30.23047 c 8.23149,-7.96219 19.25748,-11.54953 30.59571,-9.94335 a 8.0008,8.0008 0 0 0 0.002,0 l 43.05273,6.08984 a 8.0008,8.0008 0 0 0 0.004,0.002 c 12.24336,1.72793 23.84831,-6.70347 25.98437,-18.88281 l 7.51172,-42.82813 c 1.97795,-11.27799 8.79548,-20.65944 18.91016,-26.02734 l 38.41016,-20.38086 c 10.92466,-5.79599 15.35685,-19.43957 9.92578,-30.55078 l -19.09766,-39.06445 h 0.002 c -5.02796,-10.28635 -5.02796,-21.88553 0,-32.17188 h -0.002 l 19.09766,-39.06445 c 5.43043,-11.10997 0.99642,-24.75311 -9.92774,-30.54883 l -38.41015,-20.37891 a 8.0008,8.0008 0 0 0 0,-0.002 c -10.11377,-5.36532 -16.93081,-14.74739 -18.91016,-26.02539 v -0.002 L 402.95117,81.064453 C 400.81448,68.88154 389.20619,60.451379 376.96289,62.183594 l -43.05273,6.089843 C 322.57401,69.878022 311.5428,66.293911 303.3125,58.332031 L 272.06055,28.099609 C 267.61604,23.801542 261.80808,21.652299 256,21.652344 Z m 0,15.855468 c 1.74692,4.5e-5 3.49401,0.697817 4.9375,2.09375 v -0.002 l 31.25,30.232422 c 11.6997,11.318121 27.84699,16.564619 43.96484,14.283203 l 43.05274,-6.089843 c 3.97069,-0.561785 7.29302,1.849647 7.98633,5.802734 l 7.51171,42.830075 c 2.81309,16.03316 12.79221,29.76811 27.17188,37.39649 l 38.41016,20.38086 c 3.54784,1.88228 4.81434,5.78064 3.05078,9.38867 l -19.09571,39.0625 a 8.0008,8.0008 0 0 0 0,0.002 c -7.14803,14.62365 -7.14803,31.59901 0,46.22266 a 8.0008,8.0008 0 0 0 0,0.002 l 19.09571,39.0625 c 1.76492,3.61079 0.49655,7.51057 -3.05078,9.39258 L 421.875,347.94727 a 8.0008,8.0008 0 0 0 0,0.002 c -14.37732,7.6301 -24.35787,21.36248 -27.16992,37.39648 l -7.51172,42.82813 c -0.6937,3.95529 -4.00552,6.36257 -7.98633,5.80273 l -43.05273,-6.08984 c -16.12178,-2.28382 -32.26633,2.9674 -43.96485,14.2832 a 8.0008,8.0008 0 0 0 0,0.002 l -31.25195,30.23047 c -2.88443,2.79034 -6.98606,2.78992 -9.87305,-0.002 v 0.002 l -31.25,-30.23242 c -9.88814,-9.56527 -22.94567,-14.8125 -36.48828,-14.8125 -2.4808,0 -4.97903,0.1757 -7.47656,0.5293 l -43.05078,6.08984 c -3.97015,0.56129 -7.29438,-1.85102 -7.98828,-5.80469 l -7.51367,-42.82812 C 114.48379,369.31059 104.50662,355.57564 90.126953,347.94727 L 51.716797,327.56641 c -3.547843,-1.88228 -4.814347,-5.78065 -3.050781,-9.38868 l 19.095703,-39.06445 c 7.147681,-14.6241 7.147681,-31.60051 0,-46.22461 L 48.666016,193.82422 c -1.763566,-3.60803 -0.497062,-7.50639 3.050781,-9.38867 l 38.410156,-20.38086 c 14.377317,-7.6301 24.357867,-21.36444 27.169927,-37.39844 l 7.51171,-42.826172 v -0.002 c 0.69529,-3.956259 4.00617,-6.36396 7.98633,-5.802734 l 43.05274,6.089843 c 16.11677,2.281595 32.26497,-2.966086 43.96484,-14.283203 l 31.25195,-30.232422 c 1.44222,-1.395168 3.18863,-2.091841 4.93555,-2.091797 z"/>
	<path fill-rule="evenodd" d="m 363.886,148.116 c -5.765,-5.766 -15.115,-5.766 -20.881,0 l -194.889,194.89 c -5.766,5.766 -5.766,15.115 0,20.881 2.883,2.883 6.662,4.325 10.44,4.325 3.778,0 7.558,-1.441 10.44,-4.325 L 363.885,168.998 c 5.768,-5.767 5.768,-15.115 0.001,-20.882 z"/>
	<path fill-rule="evenodd" d="m 353.44531,135.8418 c -5.84297,-3e-5 -11.68582,2.20535 -16.09765,6.61718 L 142.45898,337.34961 c -8.82334,8.82334 -8.82334,23.37002 0,32.19336 4.41151,4.41151 10.28402,6.66992 16.09766,6.66992 5.81223,0 11.68519,-2.25634 16.09766,-6.67187 L 369.54102,174.65625 v -0.002 c 8.82365,-8.82333 8.82507,-23.37219 0.002,-32.19532 -4.41147,-4.41223 -10.25468,-6.61716 -16.09766,-6.61718 z m 0,15.90039 c 1.71478,-3e-5 3.42967,0.67553 4.78321,2.02929 a 8.0008,8.0008 0 0 0 0,0.002 c 2.71051,2.71051 2.71124,6.85563 0,9.5664 a 8.0008,8.0008 0 0 0 0,0.002 L 163.33984,358.23047 a 8.0008,8.0008 0 0 0 -0.002,0.002 c -1.35153,1.35247 -3.03748,1.98047 -4.78125,1.98047 -1.74235,0 -3.42871,-0.62793 -4.7832,-1.98242 -2.70866,-2.70866 -2.70866,-6.8597 0,-9.56836 L 348.66211,153.77344 c 1.35416,-1.35417 3.06843,-2.03123 4.7832,-2.03125 z"/>
	<path fill-rule="evenodd" d="m 196.941,123.116 c -29.852,0 -54.139,24.287 -54.139,54.139 0,29.852 24.287,54.139 54.139,54.139 29.852,0 54.139,-24.287 54.139,-54.139 0,-29.852 -24.287,-54.139 -54.139,-54.139 z m 0,78.747 c -13.569,0 -24.608,-11.039 -24.608,-24.609 0,-13.569 11.039,-24.608 24.608,-24.608 13.569,0 24.609,11.039 24.609,24.608 -0.001,13.57 -11.04,24.609 -24.609,24.609 z"/>
	<path fill-rule="evenodd" d="m 196.94141,115.11523 c -34.1911,0 -62.13868,27.94953 -62.13868,62.14063 0,34.19109 27.94758,62.13867 62.13868,62.13867 34.19109,0 62.13867,-27.94758 62.13867,-62.13867 0,-34.1911 -27.94758,-62.14063 -62.13867,-62.14063 z m 0,16 c 25.5129,0 46.13867,20.62772 46.13867,46.14063 0,25.5129 -20.62577,46.13867 -46.13867,46.13867 -25.51291,0 -46.13868,-20.62577 -46.13868,-46.13867 0,-25.51291 20.62577,-46.14063 46.13868,-46.14063 z m 0,13.53125 c -17.90791,0 -32.60938,14.69952 -32.60938,32.60743 0,17.90859 14.70147,32.60937 32.60938,32.60937 17.90791,0 32.60805,-14.7011 32.60937,-32.60937 0,-17.90831 -14.70146,-32.60743 -32.60937,-32.60743 z m 0,16 c 9.23009,0 16.60937,7.37773 16.60937,16.60743 -6.8e-4,9.23173 -7.37928,16.60937 -16.60937,16.60937 -9.23009,0 -16.60938,-7.37796 -16.60938,-16.60937 0,-9.23009 7.37929,-16.60743 16.60938,-16.60743 z"/>
	<path fill-rule="evenodd" d="m 315.061,280.61 c -29.852,0 -54.139,24.287 -54.139,54.139 0,29.852 24.287,54.139 54.139,54.139 29.852,0 54.139,-24.287 54.139,-54.139 0,-29.852 -24.287,-54.139 -54.139,-54.139 z m 0,78.747 c -13.569,0 -24.609,-11.039 -24.609,-24.608 0,-13.569 11.039,-24.608 24.609,-24.608 13.569,0 24.608,11.039 24.608,24.608 0,13.569 -11.039,24.608 -24.608,24.608 z"/>
	<path fill-rule="evenodd" d="m 315.06055,272.60937 c -34.1911,0 -62.13867,27.94758 -62.13868,62.13868 10e-6,34.19109 27.94758,62.14062 62.13868,62.14062 34.19109,0 62.13867,-27.94953 62.13867,-62.14062 0,-34.1911 -27.94758,-62.13867 -62.13867,-62.13868 z m 0,16 c 25.5129,0 46.13867,20.62577 46.13867,46.13868 0,25.5129 -20.62577,46.14062 -46.13867,46.14062 -25.51291,0 -46.13867,-20.62772 -46.13868,-46.14062 0,-25.51291 20.62577,-46.13868 46.13868,-46.13868 z m 0,13.53125 c -17.90859,10e-6 -32.60938,14.69952 -32.60938,32.60743 0,17.9083 14.70147,32.60937 32.60938,32.60937 17.90791,0 32.60937,-14.70146 32.60937,-32.60937 0,-17.90791 -14.70146,-32.60743 -32.60937,-32.60743 z m 0,16 c 9.23009,0 16.60937,7.37734 16.60937,16.60743 0,9.23009 -7.37928,16.60937 -16.60937,16.60937 -9.23009,0 -16.60938,-7.37968 -16.60938,-16.60937 0,-9.23009 7.37797,-16.60743 16.60938,-16.60743 z"/>
</g>
</svg>
